<svg width="72" height="72" viewBox="0 0 72 72" fill="none" xmlns="http://www.w3.org/2000/svg">
<g filter="url(#filter0_d_1007_306)">
<rect x="4" width="64" height="64" rx="32" fill="#FF4525" shape-rendering="crispEdges"/>
<path d="M35.8604 35.6305C34.0274 33.3875 32.7178 30.599 32.3822 28.2053C32.095 25.8591 33.5497 23.4445 35.909 23.4445C38.2683 23.4445 39.6585 25.873 39.3707 28.1955C38.9481 30.7707 37.664 33.4661 35.8604 35.6305ZM46.1072 23.8628C46.4445 25.2701 46.7521 26.6866 46.9187 28.1173C47.4321 32.2882 47.5697 39.91 42.0563 39.7253C40.9233 39.5488 39.8143 39.0567 38.7728 38.3503C40.3305 36.6086 41.6475 34.6462 42.5625 32.6868C43.7275 30.1678 44.3085 26.9692 43.0911 24.3069C41.8747 21.3864 39.0202 19.9582 35.909 20.0009C31.0494 19.9582 27.4718 23.9689 28.1852 28.8403C28.7252 32.4845 30.7476 35.618 33.0648 38.2232C32.3706 38.7057 31.6416 39.108 30.8864 39.4064C29.5073 39.9587 27.7724 39.6516 26.738 38.6747C26.2457 38.214 25.8499 37.5989 25.5262 36.8369C24.4573 34.1555 24.57 31.1174 24.9085 28.1187C25.0732 26.6876 25.3795 25.2709 25.7145 23.8628H20.8838C20.4424 26.3321 20.1339 29.07 20.0371 31.0782C19.7495 35.9039 21.0798 41.7405 26.0112 43.4815C28.0529 44.2085 30.3842 44.19 32.3329 43.3052C33.5824 42.7324 34.8097 41.9476 35.9721 41.0158C37.9289 42.6282 40.1953 43.9281 42.6547 43.9525C43.1523 43.9591 43.6302 43.93 44.0882 43.8674C54.023 42.6669 52.1904 28.8093 51.1661 23.8628H46.1072Z" fill="white"/>
</g>
<defs>
<filter id="filter0_d_1007_306" x="0" y="0" width="72" height="72" filterUnits="userSpaceOnUse" color-interpolation-filters="sRGB">
<feFlood flood-opacity="0" result="BackgroundImageFix"/>
<feColorMatrix in="SourceAlpha" type="matrix" values="0 0 0 0 0 0 0 0 0 0 0 0 0 0 0 0 0 0 127 0" result="hardAlpha"/>
<feOffset dy="4"/>
<feGaussianBlur stdDeviation="2"/>
<feComposite in2="hardAlpha" operator="out"/>
<feColorMatrix type="matrix" values="0 0 0 0 0 0 0 0 0 0 0 0 0 0 0 0 0 0 0.1 0"/>
<feBlend mode="normal" in2="BackgroundImageFix" result="effect1_dropShadow_1007_306"/>
<feBlend mode="normal" in="SourceGraphic" in2="effect1_dropShadow_1007_306" result="shape"/>
</filter>
</defs>
</svg>
